<?xml version="1.0" encoding="UTF-8"?>
<!DOCTYPE svg PUBLIC "-//W3C//DTD SVG 1.1//EN" "http://www.w3.org/Graphics/SVG/1.1/DTD/svg11.dtd">
<svg xmlns="http://www.w3.org/2000/svg" version="1.1" width="68px" height="69px" style="shape-rendering:geometricPrecision; text-rendering:geometricPrecision; image-rendering:optimizeQuality; fill-rule:evenodd; clip-rule:evenodd" xmlns:xlink="http://www.w3.org/1999/xlink">
<g><path style="opacity:0.198" fill="#f06e91" d="M 25.5,-0.5 C 30.8333,-0.5 36.1667,-0.5 41.5,-0.5C 54.5,3.83333 63.1667,12.5 67.5,25.5C 67.5,31.1667 67.5,36.8333 67.5,42.5C 63.158,55.5086 54.4914,64.1753 41.5,68.5C 36.1667,68.5 30.8333,68.5 25.5,68.5C 12.5086,64.1753 3.84197,55.5086 -0.5,42.5C -0.5,36.8333 -0.5,31.1667 -0.5,25.5C 3.83333,12.5 12.5,3.83333 25.5,-0.5 Z"/></g>
<g><path style="opacity:0.989" fill="#fceef1" d="M 48.5,41.5 C 51.7882,40.3735 53.9549,38.0402 55,34.5C 55.6667,30.5 55.6667,26.5 55,22.5C 54.2917,21.6195 53.4584,20.9528 52.5,20.5C 50.7116,19.3775 48.7116,19.2109 46.5,20C 43.5674,21.2709 40.9007,22.9376 38.5,25C 35.5,25.6667 32.5,25.6667 29.5,25C 25.5847,21.1399 20.918,19.4733 15.5,20C 13.051,21.8633 12.051,24.3633 12.5,27.5C 12.5504,31.0863 13.217,34.4196 14.5,37.5C 15.6718,39.539 17.3384,40.8724 19.5,41.5C 14.6149,42.1442 11.4482,40.1442 10,35.5C 6.69236,15.7419 13.1924,11.5752 29.5,23C 32.5,23.6667 35.5,23.6667 38.5,23C 54.78,11.5623 61.28,15.7289 58,35.5C 56.5518,40.1442 53.3851,42.1442 48.5,41.5 Z"/></g>
<g><path style="opacity:1" fill="#e38b9a" d="M 52.5,20.5 C 52.6653,24.1817 52.4986,27.8484 52,31.5C 48.9386,37.1794 44.7719,38.0127 39.5,34C 38.3044,33.3457 38.3044,32.8457 39.5,32.5C 41.0983,33.4847 42.765,33.6514 44.5,33C 42.5,32.1667 40.5,31.3333 38.5,30.5C 40.2744,29.8133 41.9411,28.9799 43.5,28C 41.236,27.7638 39.0693,27.2638 37,26.5C 37.0068,33.7213 33.8401,35.3879 27.5,31.5C 24.4501,31.9695 24.1168,32.8029 26.5,34C 24.5,35 22.5,36 20.5,37C 18.2091,37.2254 16.2091,37.3921 14.5,37.5C 13.217,34.4196 12.5504,31.0863 12.5,27.5C 12.051,24.3633 13.051,21.8633 15.5,20C 20.918,19.4733 25.5847,21.1399 29.5,25C 32.5,25.6667 35.5,25.6667 38.5,25C 40.9007,22.9376 43.5674,21.2709 46.5,20C 48.7116,19.2109 50.7116,19.3775 52.5,20.5 Z"/></g>
<g><path style="opacity:1" fill="#d06376" d="M 52.5,20.5 C 53.4584,20.9528 54.2917,21.6195 55,22.5C 55.6667,26.5 55.6667,30.5 55,34.5C 53.9549,38.0402 51.7882,40.3735 48.5,41.5C 47.399,40.2003 46.0657,39.7003 44.5,40C 46.5448,42.5864 48.2115,45.4198 49.5,48.5C 47.9223,49.2978 46.2556,49.7978 44.5,50C 43.4677,51.6268 42.1344,52.7934 40.5,53.5C 38.798,48.9444 40.4646,46.9444 45.5,47.5C 45.0669,42.8871 43.0669,39.0537 39.5,36C 36.7967,35.3948 34.7967,36.2281 33.5,38.5C 31.7978,43.9335 30.1312,49.2669 28.5,54.5C 26.4685,53.5218 24.8018,52.0218 23.5,50C 21.7444,49.7978 20.0777,49.2978 18.5,48.5C 18.9424,47.2613 19.6091,46.2613 20.5,45.5C 22.763,46.9365 25.0963,48.1032 27.5,49C 28.9114,44.5206 30.2447,40.0206 31.5,35.5C 28.3549,36.5739 25.3549,37.9073 22.5,39.5C 21.5,40.1667 20.5,40.8333 19.5,41.5C 17.3384,40.8724 15.6718,39.539 14.5,37.5C 16.2091,37.3921 18.2091,37.2254 20.5,37C 22.5,36 24.5,35 26.5,34C 24.1168,32.8029 24.4501,31.9695 27.5,31.5C 33.8401,35.3879 37.0068,33.7213 37,26.5C 39.0693,27.2638 41.236,27.7638 43.5,28C 41.9411,28.9799 40.2744,29.8133 38.5,30.5C 40.5,31.3333 42.5,32.1667 44.5,33C 42.765,33.6514 41.0983,33.4847 39.5,32.5C 38.3044,32.8457 38.3044,33.3457 39.5,34C 44.7719,38.0127 48.9386,37.1794 52,31.5C 52.4986,27.8484 52.6653,24.1817 52.5,20.5 Z"/></g>
<g><path style="opacity:1" fill="#e38a99" d="M 20.5,45.5 C 20.84,43.321 21.84,41.4877 23.5,40C 23.2716,39.6012 22.9382,39.4346 22.5,39.5C 25.3549,37.9073 28.3549,36.5739 31.5,35.5C 30.2447,40.0206 28.9114,44.5206 27.5,49C 25.0963,48.1032 22.763,46.9365 20.5,45.5 Z"/></g>
<g><path style="opacity:1" fill="#e48d9c" d="M 40.5,53.5 C 39.8333,53.5 39.5,53.8333 39.5,54.5C 37.942,49.6475 36.442,44.6475 35,39.5C 34.6174,38.944 34.1174,38.6107 33.5,38.5C 34.7967,36.2281 36.7967,35.3948 39.5,36C 43.0669,39.0537 45.0669,42.8871 45.5,47.5C 40.4646,46.9444 38.798,48.9444 40.5,53.5 Z"/></g>
<g><path style="opacity:0.969" fill="#fae7eb" d="M 22.5,39.5 C 22.9382,39.4346 23.2716,39.6012 23.5,40C 21.84,41.4877 20.84,43.321 20.5,45.5C 19.6091,46.2613 18.9424,47.2613 18.5,48.5C 20.0777,49.2978 21.7444,49.7978 23.5,50C 24.8018,52.0218 26.4685,53.5218 28.5,54.5C 25.9556,57.2751 23.9556,56.7751 22.5,53C 20.567,52.7489 18.7337,52.2489 17,51.5C 16.9131,47.985 17.7465,44.6517 19.5,41.5C 20.5,40.8333 21.5,40.1667 22.5,39.5 Z"/></g>
<g><path style="opacity:0.969" fill="#fae5ea" d="M 48.5,41.5 C 50.2535,44.6517 51.0869,47.985 51,51.5C 49.2663,52.2489 47.433,52.7489 45.5,53C 44.0444,56.7751 42.0444,57.2751 39.5,54.5C 39.5,53.8333 39.8333,53.5 40.5,53.5C 42.1344,52.7934 43.4677,51.6268 44.5,50C 46.2556,49.7978 47.9223,49.2978 49.5,48.5C 48.2115,45.4198 46.5448,42.5864 44.5,40C 46.0657,39.7003 47.399,40.2003 48.5,41.5 Z"/></g>
</svg>
