<?xml version="1.0" encoding="UTF-8"?>
<!DOCTYPE svg PUBLIC "-//W3C//DTD SVG 1.1//EN" "http://www.w3.org/Graphics/SVG/1.1/DTD/svg11.dtd">
<svg xmlns="http://www.w3.org/2000/svg" version="1.1" width="484px" height="484px" style="shape-rendering:geometricPrecision; text-rendering:geometricPrecision; image-rendering:optimizeQuality; fill-rule:evenodd; clip-rule:evenodd" xmlns:xlink="http://www.w3.org/1999/xlink">
<g><path style="opacity:0.107" fill="#000000" d="M 75.5,-0.5 C 185.833,-0.5 296.167,-0.5 406.5,-0.5C 448.826,6.82542 474.492,31.4921 483.5,73.5C 483.5,185.167 483.5,296.833 483.5,408.5C 474.869,449.797 449.869,474.797 408.5,483.5C 296.833,483.5 185.167,483.5 73.5,483.5C 31.5603,474.558 6.89365,448.892 -0.5,406.5C -0.5,296.167 -0.5,185.833 -0.5,75.5C 7.16462,32.502 32.498,7.16871 75.5,-0.5 Z"/></g>
<g><path style="opacity:1" fill="#feedb6" d="M 69.5,3.5 C 181.167,3.33333 292.834,3.5 404.5,4C 440.661,11.4941 462.494,33.3274 470,69.5C 470.667,180.5 470.667,291.5 470,402.5C 465.401,431.861 449.568,452.694 422.5,465C 416.37,467.449 410.037,469.116 403.5,470C 292.5,470.667 181.5,470.667 70.5,470C 33.7735,462.94 11.6068,441.107 4,404.5C 3.33333,292.5 3.33333,180.5 4,68.5C 11.8002,32.5326 33.6335,10.8659 69.5,3.5 Z"/></g>
<g><path style="opacity:1" fill="#ffd782" d="M 255.5,40.5 C 304.006,70.9049 318.506,113.238 299,167.5C 293.477,179.694 285.644,190.194 275.5,199C 266.735,204.8 258.235,210.966 250,217.5C 243.229,226.31 240.563,236.31 242,247.5C 239.135,259.198 231.968,266.865 220.5,270.5C 219.702,270.957 219.369,271.624 219.5,272.5C 213.915,267.675 210.082,261.675 208,254.5C 207.333,237.5 207.333,220.5 208,203.5C 213.822,182.347 227.656,170.514 249.5,168C 269.966,158.292 277.133,142.459 271,120.5C 263.351,105.039 250.851,97.7052 233.5,98.5C 230.752,96.3994 227.752,94.5661 224.5,93C 193.758,88.0634 177.592,101.23 176,132.5C 172.388,144.6 164.888,152.933 153.5,157.5C 148.993,153.812 145.827,149.145 144,143.5C 140.746,96.1858 160.913,63.0191 204.5,44C 221.214,38.1651 238.214,36.9984 255.5,40.5 Z"/></g>
<g><path style="opacity:1" fill="#ffc36f" d="M 255.5,40.5 C 287.292,47.3218 310.458,65.3218 325,94.5C 339.036,129.8 335.036,162.8 313,193.5C 306.802,200.032 300.302,206.199 293.5,212C 285.049,216.974 276.549,221.807 268,226.5C 267.667,236.167 267.333,245.833 267,255.5C 260.963,272.859 248.797,280.359 230.5,278C 226.25,277.203 222.583,275.37 219.5,272.5C 219.369,271.624 219.702,270.957 220.5,270.5C 231.968,266.865 239.135,259.198 242,247.5C 240.563,236.31 243.229,226.31 250,217.5C 258.235,210.966 266.735,204.8 275.5,199C 285.644,190.194 293.477,179.694 299,167.5C 318.506,113.238 304.006,70.9049 255.5,40.5 Z"/></g>
<g><path style="opacity:1" fill="#ffc36f" d="M 233.5,98.5 C 219.465,100.694 209.631,108.361 204,121.5C 203.131,130.324 201.464,138.99 199,147.5C 189.858,161.993 177.024,166.827 160.5,162C 158.138,160.489 155.805,158.989 153.5,157.5C 164.888,152.933 172.388,144.6 176,132.5C 177.592,101.23 193.758,88.0634 224.5,93C 227.752,94.5661 230.752,96.3994 233.5,98.5 Z"/></g>
<g><path style="opacity:1" fill="#504a5c" d="M 237.5,315.5 C 229.04,324.12 220.04,332.286 210.5,340C 208.167,340.667 205.833,340.667 203.5,340C 189.996,327.996 177.329,315.163 165.5,301.5C 174.25,298.628 182.916,295.461 191.5,292C 193.5,291.333 195.5,291.333 197.5,292C 210.696,300.097 224.03,307.93 237.5,315.5 Z"/></g>
<g><path style="opacity:1" fill="#504a5b" d="M 310.5,301.5 C 306.867,306.8 302.534,311.467 297.5,315.5C 289.368,323.131 281.368,330.964 273.5,339C 270.634,340.457 267.634,340.79 264.5,340C 256.333,332.5 248.167,325 240,317.5C 239.536,316.906 239.369,316.239 239.5,315.5C 252.436,307.692 265.436,299.859 278.5,292C 280.5,291.333 282.5,291.333 284.5,292C 293.069,295.452 301.736,298.619 310.5,301.5 Z"/></g>
<g><path style="opacity:1" fill="#868491" d="M 165.5,301.5 C 177.329,315.163 189.996,327.996 203.5,340C 205.833,340.667 208.167,340.667 210.5,340C 220.04,332.286 229.04,324.12 237.5,315.5C 238.167,315.5 238.833,315.5 239.5,315.5C 239.369,316.239 239.536,316.906 240,317.5C 248.167,325 256.333,332.5 264.5,340C 267.634,340.79 270.634,340.457 273.5,339C 281.368,330.964 289.368,323.131 297.5,315.5C 319.279,317.981 336.446,328.314 349,346.5C 351.277,351.387 353.277,356.387 355,361.5C 360.404,382.615 365.57,403.781 370.5,425C 369.62,431.372 366.287,435.872 360.5,438.5C 263.499,438.667 166.499,438.5 69.5,438C 61.3901,433.936 58.5567,427.436 61,418.5C 65.7621,399.285 70.5954,380.118 75.5,361C 80.7969,342.741 92.1302,329.741 109.5,322C 128.157,315.06 146.823,308.226 165.5,301.5 Z"/></g>
<g><path style="opacity:1" fill="#787784" d="M 310.5,301.5 C 326.386,307.608 342.386,313.441 358.5,319C 377.711,324.88 391.211,337.047 399,355.5C 404.158,374.464 409.158,393.464 414,412.5C 415.328,417.457 415.994,422.457 416,427.5C 414.474,433.026 410.974,436.526 405.5,438C 390.504,438.5 375.504,438.667 360.5,438.5C 366.287,435.872 369.62,431.372 370.5,425C 365.57,403.781 360.404,382.615 355,361.5C 353.277,356.387 351.277,351.387 349,346.5C 336.446,328.314 319.279,317.981 297.5,315.5C 302.534,311.467 306.867,306.8 310.5,301.5 Z"/></g>
<g><path style="opacity:1" fill="#504b5c" d="M 235.5,340.5 C 239.355,339.845 242.188,341.179 244,344.5C 244.667,368.5 244.667,392.5 244,416.5C 240,421.833 236,421.833 232,416.5C 231.333,392.5 231.333,368.5 232,344.5C 233.376,343.295 234.542,341.962 235.5,340.5 Z"/></g>
</svg>
