<?xml version="1.0" encoding="UTF-8"?>
<!DOCTYPE svg PUBLIC "-//W3C//DTD SVG 1.1//EN" "http://www.w3.org/Graphics/SVG/1.1/DTD/svg11.dtd">
<svg xmlns="http://www.w3.org/2000/svg" version="1.1" width="484px" height="483px" style="shape-rendering:geometricPrecision; text-rendering:geometricPrecision; image-rendering:optimizeQuality; fill-rule:evenodd; clip-rule:evenodd" xmlns:xlink="http://www.w3.org/1999/xlink">
<g><path style="opacity:0.107" fill="#000000" d="M 75.5,-0.5 C 185.833,-0.5 296.167,-0.5 406.5,-0.5C 448.852,6.85298 474.519,31.5196 483.5,73.5C 483.5,185.167 483.5,296.833 483.5,408.5C 477.134,442.376 457.801,465.542 425.5,478C 418.519,480.289 411.519,481.789 404.5,482.5C 295.5,482.5 186.5,482.5 77.5,482.5C 33.4487,475.783 7.44868,450.45 -0.5,406.5C -0.5,296.167 -0.5,185.833 -0.5,75.5C 7.17571,32.491 32.509,7.15762 75.5,-0.5 Z"/></g>
<g><path style="opacity:1" fill="#feedb6" d="M 69.5,3.5 C 181.167,3.33333 292.834,3.5 404.5,4C 433.952,9.45916 454.452,25.9592 466,53.5C 467.745,58.735 469.079,64.0683 470,69.5C 470.667,180.833 470.667,292.167 470,403.5C 464.814,432.043 448.981,452.21 422.5,464C 416.37,466.449 410.037,468.116 403.5,469C 292.167,469.667 180.833,469.667 69.5,469C 33.7808,461.614 11.9475,440.114 4,404.5C 3.33333,292.5 3.33333,180.5 4,68.5C 11.8002,32.5326 33.6335,10.8659 69.5,3.5 Z"/></g>
<g><path style="opacity:1" fill="#f5cba9" d="M 380.5,74.5 C 380.5,91.1667 380.5,107.833 380.5,124.5C 372.826,124.334 365.159,124.5 357.5,125C 355.206,146.452 343.206,156.619 321.5,155.5C 319.833,155.5 318.167,155.5 316.5,155.5C 314.801,155.34 313.134,155.506 311.5,156C 298.833,166 286.167,176 273.5,186C 258.578,194.455 247.412,190.955 240,175.5C 238.669,168.751 239.669,162.418 243,156.5C 245.372,154.297 247.539,151.963 249.5,149.5C 261.132,138.369 272.632,127.035 284,115.5C 284.684,114.216 284.517,113.049 283.5,112C 245.835,111.5 208.168,111.333 170.5,111.5C 191.9,99.9624 213.234,88.1291 234.5,76C 283.134,74.5287 331.8,74.0287 380.5,74.5 Z"/></g>
<g><path style="opacity:1" fill="#9ca69f" d="M 430.5,142.5 C 430.5,115.833 430.5,89.1667 430.5,62.5C 414.167,62.5 397.833,62.5 381.5,62.5C 381.5,89.1667 381.5,115.833 381.5,142.5C 380.51,136.69 380.177,130.69 380.5,124.5C 380.5,107.833 380.5,91.1667 380.5,74.5C 380.5,70.1667 380.5,65.8333 380.5,61.5C 397.5,61.5 414.5,61.5 431.5,61.5C 431.831,88.6718 431.498,115.672 430.5,142.5 Z"/></g>
<g><path style="opacity:1" fill="#145384" d="M 430.5,142.5 C 414.167,142.5 397.833,142.5 381.5,142.5C 381.5,115.833 381.5,89.1667 381.5,62.5C 397.833,62.5 414.167,62.5 430.5,62.5C 430.5,89.1667 430.5,115.833 430.5,142.5 Z"/></g>
<g><path style="opacity:1" fill="#93573d" d="M 170.5,111.5 C 208.168,111.333 245.835,111.5 283.5,112C 284.517,113.049 284.684,114.216 284,115.5C 272.632,127.035 261.132,138.369 249.5,149.5C 197.155,149.793 144.822,149.459 92.5,148.5C 89.9438,147.457 87.7772,145.79 86,143.5C 81.8775,135.29 81.5441,126.957 85,118.5C 86.884,115.616 89.384,113.449 92.5,112C 118.498,111.5 144.498,111.333 170.5,111.5 Z"/></g>
<g><path style="opacity:1" fill="#ab6647" d="M 92.5,148.5 C 144.822,149.459 197.155,149.793 249.5,149.5C 247.539,151.963 245.372,154.297 243,156.5C 239.669,162.418 238.669,168.751 240,175.5C 247.412,190.955 258.578,194.455 273.5,186C 286.167,176 298.833,166 311.5,156C 313.134,155.506 314.801,155.34 316.5,155.5C 307.102,188.193 297.602,220.86 288,253.5C 287.5,313.832 287.333,374.166 287.5,434.5C 215.167,434.5 142.833,434.5 70.5,434.5C 70.5,374.167 70.5,313.833 70.5,253.5C 80.3042,218.757 90.3042,184.09 100.5,149.5C 97.6146,149.806 94.9479,149.473 92.5,148.5 Z"/></g>
<g><path style="opacity:1" fill="#93573d" d="M 316.5,155.5 C 318.167,155.5 319.833,155.5 321.5,155.5C 330.704,188.176 340.037,220.842 349.5,253.5C 349.832,314.002 349.499,374.336 348.5,434.5C 341.251,426.749 333.751,419.083 326,411.5C 325.667,366.833 325.333,322.167 325,277.5C 322.794,273.875 319.627,272.708 315.5,274C 314.299,274.903 313.465,276.069 313,277.5C 312.667,321.833 312.333,366.167 312,410.5C 303.964,418.368 296.131,426.368 288.5,434.5C 288.167,434.5 287.833,434.5 287.5,434.5C 287.333,374.166 287.5,313.832 288,253.5C 297.602,220.86 307.102,188.193 316.5,155.5 Z"/></g>
<g><path style="opacity:1" fill="#cea67d" d="M 70.5,253.5 C 70.5,313.833 70.5,374.167 70.5,434.5C 142.833,434.5 215.167,434.5 287.5,434.5C 287.833,434.5 288.167,434.5 288.5,434.5C 308.5,434.5 328.5,434.5 348.5,434.5C 349.499,374.336 349.832,314.002 349.5,253.5C 350.499,313.998 350.832,374.664 350.5,435.5C 256.833,435.5 163.167,435.5 69.5,435.5C 69.1676,374.664 69.5009,313.998 70.5,253.5 Z"/></g>
<g><path style="opacity:1" fill="#d8d9db" d="M 225.5,329.5 C 217.167,329.5 208.833,329.5 200.5,329.5C 200.808,327.076 200.474,324.743 199.5,322.5C 196.167,320.833 192.833,319.167 189.5,317.5C 189.214,299.126 194.047,282.126 204,266.5C 209.412,259.214 216.579,255.214 225.5,254.5C 225.5,279.5 225.5,304.5 225.5,329.5 Z"/></g>
<g><path style="opacity:1" fill="#d8d8d9" d="M 157.5,304.5 C 148.833,304.5 140.167,304.5 131.5,304.5C 125.93,296.382 120.096,288.382 114,280.5C 113.333,273.167 113.333,265.833 114,258.5C 118,253.167 122,253.167 126,258.5C 126.5,265.492 126.666,272.492 126.5,279.5C 130.5,279.5 134.5,279.5 138.5,279.5C 138.334,272.492 138.5,265.492 139,258.5C 142.816,253.262 146.816,253.262 151,258.5C 151.5,265.492 151.666,272.492 151.5,279.5C 155.5,279.5 159.5,279.5 163.5,279.5C 163.334,272.492 163.5,265.492 164,258.5C 167.178,253.629 170.845,253.296 175,257.5C 175.667,265.167 175.667,272.833 175,280.5C 168.949,288.378 163.115,296.378 157.5,304.5 Z"/></g>
<g><path style="opacity:1" fill="#794832" d="M 348.5,434.5 C 328.5,434.5 308.5,434.5 288.5,434.5C 296.131,426.368 303.964,418.368 312,410.5C 312.333,366.167 312.667,321.833 313,277.5C 313.465,276.069 314.299,274.903 315.5,274C 319.627,272.708 322.794,273.875 325,277.5C 325.333,322.167 325.667,366.833 326,411.5C 333.751,419.083 341.251,426.749 348.5,434.5 Z"/></g>
<g><path style="opacity:1" fill="#e64444" d="M 131.5,304.5 C 140.167,304.5 148.833,304.5 157.5,304.5C 159.895,330.793 161.395,357.126 162,383.5C 158.271,390.219 152.604,392.886 145,391.5C 137.175,393.085 131.508,390.418 128,383.5C 127.333,375.833 127.333,368.167 128,360.5C 129.499,341.848 130.666,323.181 131.5,304.5 Z"/></g>
<g><path style="opacity:1" fill="#e64443" d="M 200.5,329.5 C 208.833,329.5 217.167,329.5 225.5,329.5C 228.101,346.948 229.601,364.614 230,382.5C 226.659,389.832 220.992,392.832 213,391.5C 205.796,393.2 200.463,390.867 197,384.5C 196.785,366.077 197.952,347.743 200.5,329.5 Z"/></g>
</svg>
