<?xml version="1.0" encoding="UTF-8"?>
<!DOCTYPE svg PUBLIC "-//W3C//DTD SVG 1.1//EN" "http://www.w3.org/Graphics/SVG/1.1/DTD/svg11.dtd">
<svg xmlns="http://www.w3.org/2000/svg" version="1.1" width="484px" height="483px" style="shape-rendering:geometricPrecision; text-rendering:geometricPrecision; image-rendering:optimizeQuality; fill-rule:evenodd; clip-rule:evenodd" xmlns:xlink="http://www.w3.org/1999/xlink">
<g><path style="opacity:0.107" fill="#000000" d="M 75.5,-0.5 C 185.833,-0.5 296.167,-0.5 406.5,-0.5C 448.852,6.85298 474.519,31.5196 483.5,73.5C 483.5,185.167 483.5,296.833 483.5,408.5C 477.134,442.376 457.801,465.542 425.5,478C 418.519,480.289 411.519,481.789 404.5,482.5C 295.5,482.5 186.5,482.5 77.5,482.5C 33.4487,475.783 7.44868,450.45 -0.5,406.5C -0.5,296.167 -0.5,185.833 -0.5,75.5C 7.17571,32.491 32.509,7.15762 75.5,-0.5 Z"/></g>
<g><path style="opacity:1" fill="#feedb6" d="M 69.5,3.5 C 181.167,3.33333 292.834,3.5 404.5,4C 433.952,9.45916 454.452,25.9592 466,53.5C 467.745,58.735 469.079,64.0683 470,69.5C 470.667,180.833 470.667,292.167 470,403.5C 464.814,432.043 448.981,452.21 422.5,464C 416.37,466.449 410.037,468.116 403.5,469C 292.167,469.667 180.833,469.667 69.5,469C 33.7808,461.614 11.9475,440.114 4,404.5C 3.33333,292.5 3.33333,180.5 4,68.5C 11.8002,32.5326 33.6335,10.8659 69.5,3.5 Z"/></g>
<g><path style="opacity:1" fill="#fdaa5d" d="M 171.5,89.5 C 157.167,74.8333 142.833,60.1667 128.5,45.5C 138.704,44.1511 149.037,44.3178 159.5,46C 166.106,48.2718 170.273,52.7718 172,59.5C 172.825,69.6753 172.658,79.6753 171.5,89.5 Z"/></g>
<g><path style="opacity:1" fill="#e9f5fe" d="M 399.5,49.5 C 397.595,49.9055 395.595,50.2389 393.5,50.5C 394.919,52.3359 396.086,54.3359 397,56.5C 397.5,65.1603 397.666,73.8269 397.5,82.5C 387.957,77.4662 379.457,78.7995 372,86.5C 371.167,92.3333 373.667,94.8333 379.5,94C 381.453,92.3674 383.62,91.2007 386,90.5C 389.19,91.2175 392.023,92.5508 394.5,94.5C 395.209,95.404 396.209,95.7373 397.5,95.5C 398.383,106.065 396.716,116.065 392.5,125.5C 390.164,123.609 387.498,123.109 384.5,124C 375.212,132.876 364.546,134.876 352.5,130C 349.228,128.392 346.228,126.392 343.5,124C 337.833,122.672 335.333,124.839 336,130.5C 340.924,137.05 347.424,141.217 355.5,143C 366.581,144.985 376.915,143.151 386.5,137.5C 384.044,142.346 380.377,146.846 375.5,151C 366.263,157.753 356.93,164.253 347.5,170.5C 332.416,161.916 320.916,149.916 313,134.5C 310.844,129.367 309.511,124.033 309,118.5C 308.333,99.8333 308.333,81.1667 309,62.5C 310.442,58.7251 312.942,55.8917 316.5,54C 343.742,43.126 371.409,41.626 399.5,49.5 Z"/></g>
<g><path style="opacity:1" fill="#eaf4fa" d="M 128.5,45.5 C 142.833,60.1667 157.167,74.8333 171.5,89.5C 171.562,94.0758 170.895,98.4091 169.5,102.5C 167.5,100.833 165.5,99.1667 163.5,97.5C 147.167,80.8333 130.833,64.1667 114.5,47.5C 119.081,46.51 123.747,45.8434 128.5,45.5 Z"/></g>
<g><path style="opacity:1" fill="#fda95c" d="M 114.5,47.5 C 130.833,64.1667 147.167,80.8333 163.5,97.5C 148.774,118.383 128.774,131.55 103.5,137C 92.6283,137.387 81.9616,137.553 71.5,137.5C 63.5,129.833 55.5,122.167 47.5,114.5C 56.8333,79.1667 79.1667,56.8333 114.5,47.5 Z"/></g>
<g><path style="opacity:1" fill="#d8ecfd" d="M 399.5,49.5 C 406.575,50.6885 412.742,53.6885 418,58.5C 419.275,60.7173 420.275,63.0506 421,65.5C 421.667,82.1667 421.667,98.8333 421,115.5C 418.759,132.148 411.593,146.315 399.5,158C 391.5,163.667 383.5,169.333 375.5,175C 365.113,179.351 355.78,177.851 347.5,170.5C 356.93,164.253 366.263,157.753 375.5,151C 380.377,146.846 384.044,142.346 386.5,137.5C 388.771,135.734 390.937,133.734 393,131.5C 393.678,129.402 393.511,127.402 392.5,125.5C 396.716,116.065 398.383,106.065 397.5,95.5C 396.209,95.7373 395.209,95.404 394.5,94.5C 399.813,94.3562 401.979,91.6895 401,86.5C 399.624,85.2949 398.458,83.9616 397.5,82.5C 397.666,73.8269 397.5,65.1603 397,56.5C 396.086,54.3359 394.919,52.3359 393.5,50.5C 395.595,50.2389 397.595,49.9055 399.5,49.5 Z"/></g>
<g><path style="opacity:1" fill="#938493" d="M 337.5,79.5 C 345.215,78.5707 351.715,80.9041 357,86.5C 358.357,91.1263 356.691,93.7929 352,94.5C 348.667,93.1667 345.333,91.8333 342,90.5C 339.62,91.2007 337.453,92.3674 335.5,94C 329.667,94.8333 327.167,92.3333 328,86.5C 330.79,83.535 333.957,81.2016 337.5,79.5 Z"/></g>
<g><path style="opacity:1" fill="#938493" d="M 397.5,82.5 C 398.458,83.9616 399.624,85.2949 401,86.5C 401.979,91.6895 399.813,94.3562 394.5,94.5C 392.023,92.5508 389.19,91.2175 386,90.5C 383.62,91.2007 381.453,92.3674 379.5,94C 373.667,94.8333 371.167,92.3333 372,86.5C 379.457,78.7995 387.957,77.4662 397.5,82.5 Z"/></g>
<g><path style="opacity:1" fill="#93828f" d="M 126.5,82.5 C 133.738,82.5675 135.904,85.9008 133,92.5C 130.115,95.0482 127.615,97.8815 125.5,101C 131.311,106.248 130.645,110.415 123.5,113.5C 120.843,111.998 118.177,110.831 115.5,110C 113.316,112.016 111.316,114.183 109.5,116.5C 115.737,123.424 114.403,127.591 105.5,129C 104.275,127.437 102.775,126.27 101,125.5C 97.8815,127.615 95.0482,130.115 92.5,133C 85.8,135.965 82.6333,133.798 83,126.5C 86.3493,123.318 89.516,119.985 92.5,116.5C 91.5197,115.019 90.353,113.685 89,112.5C 87.3487,107.859 88.8487,105.193 93.5,104.5C 96.5987,105.204 99.2654,106.37 101.5,108C 104.017,105.651 106.35,103.151 108.5,100.5C 104.207,97.2425 103.541,93.4091 106.5,89C 108.5,88.3333 110.5,88.3333 112.5,89C 113.685,90.353 115.019,91.5197 116.5,92.5C 120.188,89.479 123.521,86.1456 126.5,82.5 Z"/></g>
<g><path style="opacity:1" fill="#fd8388" d="M 221.5,87.5 C 239.366,86.7455 257.033,88.2455 274.5,92C 279.115,93.077 280.615,95.9103 279,100.5C 277.745,102.594 275.912,103.594 273.5,103.5C 260.724,100.217 247.724,98.5501 234.5,98.5C 222.047,99.4775 209.713,100.977 197.5,103C 195.09,102.242 194.09,100.575 194.5,98C 194.354,95.9658 195.02,94.2991 196.5,93C 204.801,90.4421 213.135,88.6088 221.5,87.5 Z"/></g>
<g><path style="opacity:1" fill="#fe9739" d="M 163.5,97.5 C 165.5,99.1667 167.5,100.833 169.5,102.5C 160.335,137.166 138.502,159.499 104,169.5C 103.098,169.257 102.265,168.923 101.5,168.5C 91.5,158.167 81.5,147.833 71.5,137.5C 81.9616,137.553 92.6283,137.387 103.5,137C 128.774,131.55 148.774,118.383 163.5,97.5 Z"/></g>
<g><path style="opacity:1" fill="#eaf4fa" d="M 47.5,114.5 C 55.5,122.167 63.5,129.833 71.5,137.5C 81.5,147.833 91.5,158.167 101.5,168.5C 97.9816,170.966 93.9816,171.966 89.5,171.5C 74.8333,157.167 60.1667,142.833 45.5,128.5C 45.8434,123.747 46.51,119.081 47.5,114.5 Z"/></g>
<g><path style="opacity:1" fill="#928493" d="M 392.5,125.5 C 393.511,127.402 393.678,129.402 393,131.5C 390.937,133.734 388.771,135.734 386.5,137.5C 376.915,143.151 366.581,144.985 355.5,143C 347.424,141.217 340.924,137.05 336,130.5C 335.333,124.839 337.833,122.672 343.5,124C 346.228,126.392 349.228,128.392 352.5,130C 364.546,134.876 375.212,132.876 384.5,124C 387.498,123.109 390.164,123.609 392.5,125.5 Z"/></g>
<g><path style="opacity:1" fill="#fe983a" d="M 45.5,128.5 C 60.1667,142.833 74.8333,157.167 89.5,171.5C 79.6753,172.658 69.6753,172.825 59.5,172C 53.2071,170.774 48.7071,167.274 46,161.5C 44.3705,150.362 44.2038,139.362 45.5,128.5 Z"/></g>
<g><path style="opacity:1" fill="#e9f4fd" d="M 254.5,162.5 C 249.833,162.5 245.167,162.5 240.5,162.5C 240.333,174.838 240.5,187.171 241,199.5C 246.758,215.64 258.258,222.474 275.5,220C 278.102,220.883 280.269,222.383 282,224.5C 283.64,251.104 283.973,277.771 283,304.5C 281.859,306.609 280.359,308.442 278.5,310C 282.688,310.176 286.688,310.676 290.5,311.5C 255.002,312.664 219.336,312.831 183.5,312C 179.64,310.807 177.14,308.307 176,304.5C 175.01,258.417 175.344,212.417 177,166.5C 178.731,164.383 180.898,162.883 183.5,162C 207.337,161.17 231.004,161.337 254.5,162.5 Z"/></g>
<g><path style="opacity:1" fill="#d8ecfd" d="M 254.5,162.5 C 255.492,162.328 256.158,162.662 256.5,163.5C 256.333,174.838 256.5,186.172 257,197.5C 258.122,199.624 259.622,201.457 261.5,203C 267.395,204.124 273.395,204.624 279.5,204.5C 284.833,204.333 290.167,204.167 295.5,204C 296.056,203.617 296.389,203.117 296.5,202.5C 297.222,202.918 297.722,203.584 298,204.5C 298.667,238.167 298.667,271.833 298,305.5C 296.52,308.817 294.02,310.817 290.5,311.5C 286.688,310.676 282.688,310.176 278.5,310C 280.359,308.442 281.859,306.609 283,304.5C 283.973,277.771 283.64,251.104 282,224.5C 280.269,222.383 278.102,220.883 275.5,220C 258.258,222.474 246.758,215.64 241,199.5C 240.5,187.171 240.333,174.838 240.5,162.5C 245.167,162.5 249.833,162.5 254.5,162.5 Z"/></g>
<g><path style="opacity:1" fill="#c4e2fe" d="M 256.5,163.5 C 270.448,175.78 283.782,188.78 296.5,202.5C 296.389,203.117 296.056,203.617 295.5,204C 290.167,204.167 284.833,204.333 279.5,204.5C 273.395,204.624 267.395,204.124 261.5,203C 259.622,201.457 258.122,199.624 257,197.5C 256.5,186.172 256.333,174.838 256.5,163.5 Z"/></g>
<g><path style="opacity:1" fill="#fd8388" d="M 94.5,194.5 C 97.3198,194.248 99.9865,194.748 102.5,196C 103.097,197.062 103.43,198.228 103.5,199.5C 96.9179,224.139 96.9179,248.805 103.5,273.5C 102.801,278.857 99.8008,280.69 94.5,279C 93.1068,277.829 92.2735,276.329 92,274.5C 86.0723,249.143 86.0723,223.809 92,198.5C 92.6622,197.016 93.4955,195.683 94.5,194.5 Z"/></g>
<g><path style="opacity:1" fill="#fd8388" d="M 372.5,194.5 C 375.685,194.02 378.519,194.686 381,196.5C 388.209,223.454 388.209,250.454 381,277.5C 378.24,279.703 375.24,280.036 372,278.5C 371.077,276.966 370.577,275.299 370.5,273.5C 376.994,248.984 376.994,224.484 370.5,200C 370.758,197.991 371.425,196.157 372.5,194.5 Z"/></g>
<g><path style="opacity:1" fill="#928392" d="M 197.5,198.5 C 209.505,198.333 221.505,198.5 233.5,199C 234.416,199.374 235.25,199.874 236,200.5C 236.978,203.669 236.478,206.503 234.5,209C 222.167,209.667 209.833,209.667 197.5,209C 193.565,205.504 193.565,202.004 197.5,198.5 Z"/></g>
<g><path style="opacity:1" fill="#918291" d="M 197.5,223.5 C 223.502,223.333 249.502,223.5 275.5,224C 280.395,226.823 280.729,230.157 276.5,234C 250.167,234.667 223.833,234.667 197.5,234C 193.565,230.504 193.565,227.004 197.5,223.5 Z"/></g>
<g><path style="opacity:1" fill="#918392" d="M 197.5,248.5 C 223.502,248.333 249.502,248.5 275.5,249C 280.395,251.823 280.729,255.157 276.5,259C 250.167,259.667 223.833,259.667 197.5,259C 193.565,255.504 193.565,252.004 197.5,248.5 Z"/></g>
<g><path style="opacity:1" fill="#928493" d="M 197.5,273.5 C 223.502,273.333 249.502,273.5 275.5,274C 280.395,276.823 280.729,280.157 276.5,284C 250.167,284.667 223.833,284.667 197.5,284C 193.565,280.504 193.565,277.004 197.5,273.5 Z"/></g>
<g><path style="opacity:1" fill="#fee077" d="M 145.5,298.5 C 139.824,298.334 134.157,298.501 128.5,299C 129.333,299.833 130.167,300.667 131,301.5C 131.5,335.498 131.667,369.498 131.5,403.5C 137.5,403.5 143.5,403.5 149.5,403.5C 149.5,369.833 149.5,336.167 149.5,302.5C 150.498,336.329 150.832,370.329 150.5,404.5C 118.832,404.333 87.1649,404.5 55.5,405C 52.4048,405.935 50.0714,407.769 48.5,410.5C 47.5017,376.337 47.1683,342.004 47.5,307.5C 48.9213,302.91 51.9213,299.744 56.5,298C 86.3362,297.169 116.003,297.336 145.5,298.5 Z"/></g>
<g><path style="opacity:1" fill="#ffd15b" d="M 145.5,298.5 C 147.833,298.833 149.167,300.167 149.5,302.5C 149.5,336.167 149.5,369.833 149.5,403.5C 143.5,403.5 137.5,403.5 131.5,403.5C 131.667,369.498 131.5,335.498 131,301.5C 130.167,300.667 129.333,299.833 128.5,299C 134.157,298.501 139.824,298.334 145.5,298.5 Z"/></g>
<g><path style="opacity:1" fill="#8ac9fd" d="M 358.5,300.5 C 358.335,304.182 358.501,307.848 359,311.5C 362.766,316.796 366.433,316.796 370,311.5C 370.499,307.848 370.665,304.182 370.5,300.5C 383.27,301.309 394.604,305.642 404.5,313.5C 403.957,313.56 403.624,313.893 403.5,314.5C 412.099,328.315 414.932,343.315 412,359.5C 406.035,387.465 389.202,404.965 361.5,412C 352.5,412.667 343.5,412.667 334.5,412C 327.235,410.533 320.568,407.7 314.5,403.5C 313.893,403.624 313.56,403.957 313.5,404.5C 305.642,394.604 301.309,383.27 300.5,370.5C 304.182,370.665 307.848,370.499 311.5,370C 316.833,366.333 316.833,362.667 311.5,359C 307.848,358.501 304.182,358.335 300.5,358.5C 304.315,328.839 320.648,309.673 349.5,301C 352.482,300.502 355.482,300.335 358.5,300.5 Z"/></g>
<g><path style="opacity:1" fill="#2fa8fd" d="M 370.5,300.5 C 370.665,304.182 370.499,307.848 370,311.5C 366.433,316.796 362.766,316.796 359,311.5C 358.501,307.848 358.335,304.182 358.5,300.5C 362.5,299.167 366.5,299.167 370.5,300.5 Z"/></g>
<g><path style="opacity:1" fill="#fee68d" d="M 47.5,307.5 C 47.1683,342.004 47.5017,376.337 48.5,410.5C 47.8902,411.391 47.5569,412.391 47.5,413.5C 46.1667,378.167 46.1667,342.833 47.5,307.5 Z"/></g>
<g><path style="opacity:1" fill="#63b8fe" d="M 404.5,313.5 C 419.611,325.048 427.944,340.382 429.5,359.5C 425.587,358.404 421.587,358.238 417.5,359C 412.28,366.149 414.114,369.982 423,370.5C 425.449,370.342 427.616,369.675 429.5,368.5C 424.806,404.528 404.472,424.861 368.5,429.5C 370.481,425.817 370.981,421.817 370,417.5C 366.383,412.185 362.717,412.185 359,417.5C 358.238,421.587 358.404,425.587 359.5,429.5C 340.345,427.927 325.012,419.594 313.5,404.5C 313.56,403.957 313.893,403.624 314.5,403.5C 320.568,407.7 327.235,410.533 334.5,412C 343.5,412.667 352.5,412.667 361.5,412C 389.202,404.965 406.035,387.465 412,359.5C 414.932,343.315 412.099,328.315 403.5,314.5C 403.624,313.893 403.957,313.56 404.5,313.5 Z"/></g>
<g><path style="opacity:1" fill="#fd8186" d="M 79.5,322.5 C 93.9308,322.034 108.264,322.534 122.5,324C 123.82,331.137 123.82,338.303 122.5,345.5C 121.975,346.192 121.308,346.692 120.5,347C 106.5,347.667 92.5,347.667 78.5,347C 78,346.5 77.5,346 77,345.5C 76.3333,338.5 76.3333,331.5 77,324.5C 77.9947,323.934 78.828,323.267 79.5,322.5 Z"/></g>
<g><path style="opacity:1" fill="#e6f4ff" d="M 361.5,328.5 C 364.97,327.875 367.804,328.875 370,331.5C 370.333,341.5 370.667,351.5 371,361.5C 376.333,364.833 381.667,368.167 387,371.5C 388.329,377.834 385.829,380.668 379.5,380C 372.238,376.121 365.405,371.621 359,366.5C 358.333,354.833 358.333,343.167 359,331.5C 360.045,330.627 360.878,329.627 361.5,328.5 Z"/></g>
<g><path style="opacity:1" fill="#2fa8fd" d="M 300.5,358.5 C 304.182,358.335 307.848,358.501 311.5,359C 316.833,362.667 316.833,366.333 311.5,370C 307.848,370.499 304.182,370.665 300.5,370.5C 299.167,366.5 299.167,362.5 300.5,358.5 Z"/></g>
<g><path style="opacity:1" fill="#28a6fd" d="M 429.5,359.5 C 429.5,362.5 429.5,365.5 429.5,368.5C 427.616,369.675 425.449,370.342 423,370.5C 414.114,369.982 412.28,366.149 417.5,359C 421.587,358.238 425.587,358.404 429.5,359.5 Z"/></g>
<g><path style="opacity:1" fill="#fd8388" d="M 197.5,370.5 C 222.813,377.165 248.147,377.165 273.5,370.5C 279.377,371.261 281.044,374.428 278.5,380C 259.918,385.625 240.918,387.625 221.5,386C 212.945,385.356 204.612,383.689 196.5,381C 193.615,377.056 193.948,373.556 197.5,370.5 Z"/></g>
<g><path style="opacity:1" fill="#eaf5fd" d="M 150.5,404.5 C 150.824,411.354 150.491,418.021 149.5,424.5C 149.5,418.167 149.5,411.833 149.5,405.5C 143.5,405.5 137.5,405.5 131.5,405.5C 131.666,412.175 131.5,418.842 131,425.5C 129.804,427.286 128.304,428.619 126.5,429.5C 102.831,429.667 79.1643,429.5 55.5,429C 48.7431,425.872 46.0764,420.706 47.5,413.5C 47.5569,412.391 47.8902,411.391 48.5,410.5C 50.0714,407.769 52.4048,405.935 55.5,405C 87.1649,404.5 118.832,404.333 150.5,404.5 Z"/></g>
<g><path style="opacity:1" fill="#d8ecfd" d="M 149.5,424.5 C 149.863,426.911 148.863,428.411 146.5,429C 139.842,429.5 133.175,429.666 126.5,429.5C 128.304,428.619 129.804,427.286 131,425.5C 131.5,418.842 131.666,412.175 131.5,405.5C 137.5,405.5 143.5,405.5 149.5,405.5C 149.5,411.833 149.5,418.167 149.5,424.5 Z"/></g>
<g><path style="opacity:1" fill="#29a6fd" d="M 368.5,429.5 C 365.5,429.5 362.5,429.5 359.5,429.5C 358.404,425.587 358.238,421.587 359,417.5C 362.717,412.185 366.383,412.185 370,417.5C 370.981,421.817 370.481,425.817 368.5,429.5 Z"/></g>
</svg>
