<?xml version="1.0" encoding="UTF-8"?>
<!DOCTYPE svg PUBLIC "-//W3C//DTD SVG 1.1//EN" "http://www.w3.org/Graphics/SVG/1.1/DTD/svg11.dtd">
<svg xmlns="http://www.w3.org/2000/svg" version="1.1" width="484px" height="484px" style="shape-rendering:geometricPrecision; text-rendering:geometricPrecision; image-rendering:optimizeQuality; fill-rule:evenodd; clip-rule:evenodd" xmlns:xlink="http://www.w3.org/1999/xlink">
<g><path style="opacity:0.107" fill="#000000" d="M 75.5,-0.5 C 185.833,-0.5 296.167,-0.5 406.5,-0.5C 448.826,6.82542 474.492,31.4921 483.5,73.5C 483.5,185.167 483.5,296.833 483.5,408.5C 474.869,449.797 449.869,474.797 408.5,483.5C 296.833,483.5 185.167,483.5 73.5,483.5C 31.5603,474.558 6.89365,448.892 -0.5,406.5C -0.5,296.167 -0.5,185.833 -0.5,75.5C 7.16462,32.502 32.498,7.16871 75.5,-0.5 Z"/></g>
<g><path style="opacity:1" fill="#feedb6" d="M 69.5,3.5 C 181.167,3.33333 292.834,3.5 404.5,4C 440.661,11.4941 462.494,33.3274 470,69.5C 470.667,180.5 470.667,291.5 470,402.5C 465.401,431.861 449.568,452.694 422.5,465C 416.37,467.449 410.037,469.116 403.5,470C 292.5,470.667 181.5,470.667 70.5,470C 33.7735,462.94 11.6068,441.107 4,404.5C 3.33333,292.5 3.33333,180.5 4,68.5C 11.8002,32.5326 33.6335,10.8659 69.5,3.5 Z"/></g>
<g><path style="opacity:1" fill="#434b54" d="M 273.5,89.5 C 273.667,101.505 273.5,113.505 273,125.5C 267.906,135.569 261.239,136.902 253,129.5C 251.521,106.591 251.021,83.5905 251.5,60.5C 254.098,52.3692 259.431,49.8692 267.5,53C 269,54.5 270.5,56 272,57.5C 273.453,68.0631 273.953,78.7298 273.5,89.5 Z"/></g>
<g><path style="opacity:1" fill="#616b71" d="M 137.5,89.5 C 137.667,101.838 137.5,114.171 137,126.5C 133.826,133.505 128.659,135.672 121.5,133C 118.865,131.039 117.031,128.539 116,125.5C 115.5,113.505 115.333,101.505 115.5,89.5C 115.334,79.4944 115.5,69.4944 116,59.5C 119.199,51.657 124.699,49.4903 132.5,53C 134.378,54.5429 135.878,56.3762 137,58.5C 137.5,68.828 137.666,79.1613 137.5,89.5 Z"/></g>
<g><path style="opacity:1" fill="#626c72" d="M 182.5,89.5 C 182.667,102.171 182.5,114.838 182,127.5C 178.348,133.748 173.181,135.581 166.5,133C 163.865,131.039 162.031,128.539 161,125.5C 160.5,113.505 160.333,101.505 160.5,89.5C 160.334,79.4944 160.5,69.4944 161,59.5C 164.438,52.2 169.938,50.0334 177.5,53C 179.378,54.5429 180.878,56.3762 182,58.5C 182.5,68.828 182.666,79.1613 182.5,89.5 Z"/></g>
<g><path style="opacity:1" fill="#414952" d="M 216.5,51.5 C 221.076,51.5675 224.576,53.5675 227,57.5C 227.5,68.1615 227.667,78.8281 227.5,89.5C 227.667,101.838 227.5,114.171 227,126.5C 225.943,130.391 223.443,132.724 219.5,133.5C 218.5,133.5 217.5,133.5 216.5,133.5C 216.5,106.167 216.5,78.8333 216.5,51.5 Z"/></g>
<g><path style="opacity:1" fill="#434b53" d="M 318.5,89.5 C 318.667,101.505 318.5,113.505 318,125.5C 314.705,133.067 309.205,135.567 301.5,133C 299.19,131.363 297.69,129.196 297,126.5C 296.5,114.171 296.333,101.838 296.5,89.5C 296.333,78.8281 296.5,68.1615 297,57.5C 304.882,49.2036 311.882,49.8703 318,59.5C 318.5,69.4944 318.666,79.4944 318.5,89.5 Z"/></g>
<g><path style="opacity:1" fill="#636d73" d="M 216.5,51.5 C 216.5,78.8333 216.5,106.167 216.5,133.5C 217.5,133.5 218.5,133.5 219.5,133.5C 218.791,134.404 217.791,134.737 216.5,134.5C 211.329,133.498 207.829,130.498 206,125.5C 205.5,113.505 205.333,101.505 205.5,89.5C 205.334,79.4944 205.5,69.4944 206,59.5C 207.802,54.5241 211.302,51.8575 216.5,51.5 Z"/></g>
<g><path style="opacity:1" fill="#deedf9" d="M 115.5,89.5 C 115.333,101.505 115.5,113.505 116,125.5C 117.031,128.539 118.865,131.039 121.5,133C 128.659,135.672 133.826,133.505 137,126.5C 137.5,114.171 137.667,101.838 137.5,89.5C 145.167,89.5 152.833,89.5 160.5,89.5C 160.333,101.505 160.5,113.505 161,125.5C 162.031,128.539 163.865,131.039 166.5,133C 173.181,135.581 178.348,133.748 182,127.5C 182.5,114.838 182.667,102.171 182.5,89.5C 190.167,89.5 197.833,89.5 205.5,89.5C 205.333,101.505 205.5,113.505 206,125.5C 207.829,130.498 211.329,133.498 216.5,134.5C 216.5,147.167 216.5,159.833 216.5,172.5C 188.328,172.169 160.328,172.502 132.5,173.5C 122.598,176.311 120.098,182.311 125,191.5C 126.579,193.041 128.413,194.208 130.5,195C 159.165,195.5 187.831,195.667 216.5,195.5C 216.5,202.833 216.5,210.167 216.5,217.5C 187.498,217.333 158.498,217.5 129.5,218C 122.124,222.267 120.624,228.101 125,235.5C 126.41,236.787 127.91,237.954 129.5,239C 158.498,239.5 187.498,239.667 216.5,239.5C 216.5,246.833 216.5,254.167 216.5,261.5C 187.498,261.333 158.498,261.5 129.5,262C 122.124,266.267 120.624,272.101 125,279.5C 126.214,281.049 127.714,282.215 129.5,283C 158.498,283.5 187.498,283.667 216.5,283.5C 216.5,290.833 216.5,298.167 216.5,305.5C 187.831,305.333 159.165,305.5 130.5,306C 122.198,309.73 120.365,315.564 125,323.5C 126.214,325.049 127.714,326.215 129.5,327C 158.498,327.5 187.498,327.667 216.5,327.5C 217.5,327.5 218.5,327.5 219.5,327.5C 217.788,331.927 215.788,336.26 213.5,340.5C 213.863,341.183 214.196,341.85 214.5,342.5C 212.133,344.198 210.466,346.531 209.5,349.5C 183.165,349.333 156.831,349.5 130.5,350C 122.198,353.73 120.365,359.564 125,367.5C 126.638,369.734 128.805,371.067 131.5,371.5C 159.662,372.498 187.995,372.831 216.5,372.5C 216.5,390.833 216.5,409.167 216.5,427.5C 179.165,427.667 141.832,427.5 104.5,427C 92.5305,423.699 84.3638,416.199 80,404.5C 78.3423,302.21 78.0089,199.877 79,97.5C 80.1667,93.6667 82.6667,91.1667 86.5,90C 96.1609,89.5002 105.828,89.3335 115.5,89.5 Z"/></g>
<g><path style="opacity:1" fill="#c8def5" d="M 251.5,60.5 C 251.021,83.5905 251.521,106.591 253,129.5C 261.239,136.902 267.906,135.569 273,125.5C 273.5,113.505 273.667,101.505 273.5,89.5C 281.167,89.5 288.833,89.5 296.5,89.5C 296.333,101.838 296.5,114.171 297,126.5C 297.69,129.196 299.19,131.363 301.5,133C 309.205,135.567 314.705,133.067 318,125.5C 318.5,113.505 318.667,101.505 318.5,89.5C 328.172,89.3335 337.839,89.5002 347.5,90C 350.667,91.8333 353.167,94.3333 355,97.5C 355.5,123.165 355.667,148.831 355.5,174.5C 345.833,184.5 336.167,194.5 326.5,204.5C 320.5,210.167 314.5,215.833 308.5,221.5C 306.91,219.766 304.91,218.6 302.5,218C 273.835,217.5 245.169,217.333 216.5,217.5C 216.5,210.167 216.5,202.833 216.5,195.5C 225.732,194.053 229.232,188.72 227,179.5C 224.647,175.571 221.147,173.571 216.5,173.5C 188.5,173.5 160.5,173.5 132.5,173.5C 160.328,172.502 188.328,172.169 216.5,172.5C 216.5,159.833 216.5,147.167 216.5,134.5C 217.791,134.737 218.791,134.404 219.5,133.5C 223.443,132.724 225.943,130.391 227,126.5C 227.5,114.171 227.667,101.838 227.5,89.5C 235.167,89.5 242.833,89.5 250.5,89.5C 250.173,79.6522 250.506,69.9856 251.5,60.5 Z"/></g>
<g><path style="opacity:1" fill="#fe826e" d="M 425.5,153.5 C 411.885,165.447 398.885,178.114 386.5,191.5C 386.167,191.5 385.833,191.5 385.5,191.5C 378.167,183.5 370.5,175.833 362.5,168.5C 370.51,158.32 380.176,150.153 391.5,144C 404.765,140.679 416.098,143.845 425.5,153.5 Z"/></g>
<g><path style="opacity:1" fill="#fe5957" d="M 425.5,153.5 C 436.122,166.167 437.288,179.834 429,194.5C 422.94,202.061 416.106,208.728 408.5,214.5C 401.167,206.833 393.833,199.167 386.5,191.5C 398.885,178.114 411.885,165.447 425.5,153.5 Z"/></g>
<g><path style="opacity:1" fill="#616a6f" d="M 362.5,168.5 C 370.5,175.833 378.167,183.5 385.5,191.5C 373.833,203.833 361.833,215.833 349.5,227.5C 341.5,220.167 333.833,212.5 326.5,204.5C 336.167,194.5 345.833,184.5 355.5,174.5C 357.833,172.5 360.167,170.5 362.5,168.5 Z"/></g>
<g><path style="opacity:1" fill="#82a0d2" d="M 132.5,173.5 C 160.5,173.5 188.5,173.5 216.5,173.5C 216.5,180.833 216.5,188.167 216.5,195.5C 187.831,195.667 159.165,195.5 130.5,195C 128.413,194.208 126.579,193.041 125,191.5C 120.098,182.311 122.598,176.311 132.5,173.5 Z"/></g>
<g><path style="opacity:1" fill="#5978a7" d="M 216.5,173.5 C 221.147,173.571 224.647,175.571 227,179.5C 229.232,188.72 225.732,194.053 216.5,195.5C 216.5,188.167 216.5,180.833 216.5,173.5 Z"/></g>
<g><path style="opacity:1" fill="#444a52" d="M 385.5,191.5 C 385.833,191.5 386.167,191.5 386.5,191.5C 393.833,199.167 401.167,206.833 408.5,214.5C 397.756,226.747 386.423,238.58 374.5,250C 373.906,250.464 373.239,250.631 372.5,250.5C 364.833,243.167 357.167,235.833 349.5,228.5C 349.5,228.167 349.5,227.833 349.5,227.5C 361.833,215.833 373.833,203.833 385.5,191.5 Z"/></g>
<g><path style="opacity:1" fill="#fee545" d="M 326.5,204.5 C 333.833,212.5 341.5,220.167 349.5,227.5C 349.5,227.833 349.5,228.167 349.5,228.5C 319.167,258.5 288.833,288.5 258.5,318.5C 258.167,318.5 257.833,318.5 257.5,318.5C 250.167,310.833 242.833,303.167 235.5,295.5C 239.167,291.5 242.833,287.5 246.5,283.5C 254.167,276.5 261.5,269.167 268.5,261.5C 276.167,254.5 283.5,247.167 290.5,239.5C 296.833,233.833 302.833,227.833 308.5,221.5C 314.5,215.833 320.5,210.167 326.5,204.5 Z"/></g>
<g><path style="opacity:1" fill="#82a0d2" d="M 216.5,217.5 C 216.5,224.833 216.5,232.167 216.5,239.5C 187.498,239.667 158.498,239.5 129.5,239C 127.91,237.954 126.41,236.787 125,235.5C 120.624,228.101 122.124,222.267 129.5,218C 158.498,217.5 187.498,217.333 216.5,217.5 Z"/></g>
<g><path style="opacity:1" fill="#5877a6" d="M 216.5,217.5 C 245.169,217.333 273.835,217.5 302.5,218C 304.91,218.6 306.91,219.766 308.5,221.5C 302.833,227.833 296.833,233.833 290.5,239.5C 265.833,239.5 241.167,239.5 216.5,239.5C 216.5,232.167 216.5,224.833 216.5,217.5 Z"/></g>
<g><path style="opacity:1" fill="#feb506" d="M 349.5,228.5 C 357.167,235.833 364.833,243.167 372.5,250.5C 367.226,257.111 361.56,263.445 355.5,269.5C 331.035,293.465 306.701,317.632 282.5,342C 281.906,342.464 281.239,342.631 280.5,342.5C 272.776,334.78 265.443,326.78 258.5,318.5C 288.833,288.5 319.167,258.5 349.5,228.5 Z"/></g>
<g><path style="opacity:1" fill="#c8def6" d="M 216.5,239.5 C 241.167,239.5 265.833,239.5 290.5,239.5C 283.5,247.167 276.167,254.5 268.5,261.5C 251.167,261.5 233.833,261.5 216.5,261.5C 216.5,254.167 216.5,246.833 216.5,239.5 Z"/></g>
<g><path style="opacity:1" fill="#82a0d2" d="M 216.5,261.5 C 216.5,268.833 216.5,276.167 216.5,283.5C 187.498,283.667 158.498,283.5 129.5,283C 127.714,282.215 126.214,281.049 125,279.5C 120.624,272.101 122.124,266.267 129.5,262C 158.498,261.5 187.498,261.333 216.5,261.5 Z"/></g>
<g><path style="opacity:1" fill="#5977a6" d="M 216.5,261.5 C 233.833,261.5 251.167,261.5 268.5,261.5C 261.5,269.167 254.167,276.5 246.5,283.5C 236.5,283.5 226.5,283.5 216.5,283.5C 216.5,276.167 216.5,268.833 216.5,261.5 Z"/></g>
<g><path style="opacity:1" fill="#c9dff6" d="M 355.5,269.5 C 355.667,312.835 355.5,356.168 355,399.5C 351.713,415.121 342.213,424.287 326.5,427C 289.835,427.5 253.168,427.667 216.5,427.5C 216.5,409.167 216.5,390.833 216.5,372.5C 187.995,372.831 159.662,372.498 131.5,371.5C 158.5,371.5 185.5,371.5 212.5,371.5C 220.896,370.796 228.563,368.129 235.5,363.5C 247.595,358.621 259.595,353.454 271.5,348C 274.898,346.643 277.898,344.81 280.5,342.5C 281.239,342.631 281.906,342.464 282.5,342C 306.701,317.632 331.035,293.465 355.5,269.5 Z"/></g>
<g><path style="opacity:1" fill="#c8def5" d="M 216.5,283.5 C 226.5,283.5 236.5,283.5 246.5,283.5C 242.833,287.5 239.167,291.5 235.5,295.5C 234.542,295.953 233.708,296.619 233,297.5C 232.094,300.31 230.927,302.976 229.5,305.5C 225.167,305.5 220.833,305.5 216.5,305.5C 216.5,298.167 216.5,290.833 216.5,283.5 Z"/></g>
<g><path style="opacity:1" fill="#fdebd4" d="M 235.5,295.5 C 242.833,303.167 250.167,310.833 257.5,318.5C 246.833,330.167 236.167,341.833 225.5,353.5C 225.167,353.5 224.833,353.5 224.5,353.5C 221.167,349.833 217.833,346.167 214.5,342.5C 214.196,341.85 213.863,341.183 213.5,340.5C 215.788,336.26 217.788,331.927 219.5,327.5C 222.833,320.167 226.167,312.833 229.5,305.5C 230.927,302.976 232.094,300.31 233,297.5C 233.708,296.619 234.542,295.953 235.5,295.5 Z"/></g>
<g><path style="opacity:1" fill="#82a0d2" d="M 216.5,305.5 C 216.5,312.833 216.5,320.167 216.5,327.5C 187.498,327.667 158.498,327.5 129.5,327C 127.714,326.215 126.214,325.049 125,323.5C 120.365,315.564 122.198,309.73 130.5,306C 159.165,305.5 187.831,305.333 216.5,305.5 Z"/></g>
<g><path style="opacity:1" fill="#5a78a7" d="M 216.5,305.5 C 220.833,305.5 225.167,305.5 229.5,305.5C 226.167,312.833 222.833,320.167 219.5,327.5C 218.5,327.5 217.5,327.5 216.5,327.5C 216.5,320.167 216.5,312.833 216.5,305.5 Z"/></g>
<g><path style="opacity:1" fill="#fed9ab" d="M 257.5,318.5 C 257.833,318.5 258.167,318.5 258.5,318.5C 265.443,326.78 272.776,334.78 280.5,342.5C 277.898,344.81 274.898,346.643 271.5,348C 259.595,353.454 247.595,358.621 235.5,363.5C 231.833,360.5 228.5,357.167 225.5,353.5C 236.167,341.833 246.833,330.167 257.5,318.5 Z"/></g>
<g><path style="opacity:1" fill="#426191" d="M 214.5,342.5 C 217.833,346.167 221.167,349.833 224.5,353.5C 219.167,358.167 214.167,363.167 209.5,368.5C 207.133,366.433 205.8,363.766 205.5,360.5C 206.441,356.674 207.775,353.008 209.5,349.5C 210.466,346.531 212.133,344.198 214.5,342.5 Z"/></g>
<g><path style="opacity:1" fill="#82a0d2" d="M 209.5,349.5 C 207.775,353.008 206.441,356.674 205.5,360.5C 205.8,363.766 207.133,366.433 209.5,368.5C 210.306,369.728 211.306,370.728 212.5,371.5C 185.5,371.5 158.5,371.5 131.5,371.5C 128.805,371.067 126.638,369.734 125,367.5C 120.365,359.564 122.198,353.73 130.5,350C 156.831,349.5 183.165,349.333 209.5,349.5 Z"/></g>
<g><path style="opacity:1" fill="#29425f" d="M 224.5,353.5 C 224.833,353.5 225.167,353.5 225.5,353.5C 228.5,357.167 231.833,360.5 235.5,363.5C 228.563,368.129 220.896,370.796 212.5,371.5C 211.306,370.728 210.306,369.728 209.5,368.5C 214.167,363.167 219.167,358.167 224.5,353.5 Z"/></g>
</svg>
