<?xml version="1.0" encoding="UTF-8"?>
<!DOCTYPE svg PUBLIC "-//W3C//DTD SVG 1.1//EN" "http://www.w3.org/Graphics/SVG/1.1/DTD/svg11.dtd">
<svg xmlns="http://www.w3.org/2000/svg" version="1.1" width="526px" height="526px" style="shape-rendering:geometricPrecision; text-rendering:geometricPrecision; image-rendering:optimizeQuality; fill-rule:evenodd; clip-rule:evenodd" xmlns:xlink="http://www.w3.org/1999/xlink">
<g><path style="opacity:0.107" fill="#000000" d="M 94.5,-0.5 C 206.5,-0.5 318.5,-0.5 430.5,-0.5C 477.098,6.91577 507.598,33.2491 522,78.5C 523.187,84.9725 524.354,91.3058 525.5,97.5C 525.5,207.5 525.5,317.5 525.5,427.5C 516.506,483.827 483.839,516.494 427.5,525.5C 317.5,525.5 207.5,525.5 97.5,525.5C 49.1729,519.343 17.6729,493.009 3,446.5C 1.92531,441.011 0.758639,435.678 -0.5,430.5C -0.5,318.5 -0.5,206.5 -0.5,94.5C 8.82553,40.5078 40.4922,8.84114 94.5,-0.5 Z"/></g>
<g><path style="opacity:1" fill="#feedb6" d="M 89.5,3.5 C 201.834,3.33333 314.167,3.5 426.5,4C 463.33,9.83787 489.497,29.6712 505,63.5C 508.268,71.9058 510.602,80.5725 512,89.5C 512.667,201.5 512.667,313.5 512,425.5C 503.163,474.337 474.329,503.171 425.5,512C 313.5,512.667 201.5,512.667 89.5,512C 47.8719,505.039 20.3719,481.539 7,441.5C 5.52353,436.594 4.52353,431.594 4,426.5C 3.33333,314.167 3.33333,201.833 4,89.5C 13.3464,41.6539 41.8464,12.9873 89.5,3.5 Z"/></g>
<g><path style="opacity:1" fill="#fefefe" d="M 94.5,45.5 C 203.501,45.3333 312.501,45.5 421.5,46C 448.388,51.5547 464.555,67.7214 470,94.5C 470.667,203.5 470.667,312.5 470,421.5C 464.5,448.333 448.333,464.5 421.5,470C 312.5,470.667 203.5,470.667 94.5,470C 67.7125,464.546 51.5458,448.379 46,421.5C 45.3333,312.5 45.3333,203.5 46,94.5C 51.6803,67.6535 67.847,51.3202 94.5,45.5 Z"/></g>
<g><path style="opacity:1" fill="#fdbd79" d="M 225.5,181.5 C 225.334,188.175 225.5,194.842 226,201.5C 227.211,196.074 229.711,191.407 233.5,187.5C 236.447,186.027 239.447,184.527 242.5,183C 251.5,182.333 260.5,182.333 269.5,183C 271.058,183.21 272.391,183.71 273.5,184.5C 273.667,198.504 273.5,212.504 273,226.5C 271.167,237.667 264.667,244.167 253.5,246C 244.132,246.752 234.799,246.585 225.5,245.5C 225.5,238.167 225.5,230.833 225.5,223.5C 210.012,227.432 194.679,231.932 179.5,237C 178.398,239.401 178.231,241.901 179,244.5C 180.313,245.573 181.813,246.24 183.5,246.5C 191.682,243.538 200.015,241.372 208.5,240C 187.075,254.88 164.075,266.88 139.5,276C 121.834,281.822 107.501,277.322 96.5,262.5C 93.0578,253.473 90.5578,244.14 89,234.5C 86.4364,212.37 87.1031,190.37 91,168.5C 100.661,138.085 120.827,127.919 151.5,138C 178.862,148.171 203.529,162.671 225.5,181.5 Z"/></g>
<g><path style="opacity:1" fill="#fdbd79" d="M 403.5,139.5 C 410.744,175.465 406.91,210.132 392,243.5C 379.213,267.072 360.38,273.572 335.5,263C 319.618,256.727 304.618,248.893 290.5,239.5C 289.167,237.833 289.167,236.167 290.5,234.5C 304.139,238.497 317.806,242.497 331.5,246.5C 336.066,245.698 337.9,243.032 337,238.5C 336.097,237.299 334.931,236.465 333.5,236C 319.5,232 305.5,228 291.5,224C 289.679,221.544 289.012,218.711 289.5,215.5C 304.568,211.645 319.568,207.478 334.5,203C 339.08,197.839 337.913,194.672 331,193.5C 317.093,196.935 303.26,200.602 289.5,204.5C 288.718,197.936 286.051,192.269 281.5,187.5C 294.393,177.112 307.726,167.279 321.5,158C 336.727,148.22 353.06,140.887 370.5,136C 381.975,133.199 392.975,134.366 403.5,139.5 Z"/></g>
<g><path style="opacity:1" fill="#cc5c6f" d="M 403.5,139.5 C 409.786,142.618 414.619,147.285 418,153.5C 425.759,170.444 428.925,188.277 427.5,207C 428.538,228.002 425.038,248.169 417,267.5C 403.446,299.676 380.946,307.843 349.5,292C 346.671,290.753 344.005,289.253 341.5,287.5C 341.167,287.833 340.833,288.167 340.5,288.5C 354.516,309.186 367.016,330.853 378,353.5C 380.28,361.435 377.78,367.269 370.5,371C 361.463,371.423 352.463,370.923 343.5,369.5C 341.833,369.833 340.167,370.167 338.5,370.5C 333,378.833 327.5,387.167 322,395.5C 314.959,402.155 307.959,402.155 301,395.5C 298.406,390.125 296.906,384.458 296.5,378.5C 301.787,370.101 307.454,361.934 313.5,354C 323.797,354.898 334.13,355.231 344.5,355C 350.856,351.789 353.689,346.623 353,339.5C 341.808,316.27 328.975,294.103 314.5,273C 305.365,267.364 296.365,261.53 287.5,255.5C 285.292,258.054 282.959,260.554 280.5,263C 272.622,266.781 264.288,268.448 255.5,268C 256.381,268.708 257.047,269.542 257.5,270.5C 250.591,281.011 245.091,292.344 241,304.5C 231.451,333.147 223.118,362.147 216,391.5C 211.217,400.142 204.384,402.309 195.5,398C 188.972,388.971 182.638,379.804 176.5,370.5C 174.5,370.167 172.5,369.833 170.5,369.5C 161.577,371.27 152.577,371.77 143.5,371C 137.03,366.874 134.863,361.041 137,353.5C 139.274,348.613 141.774,343.946 144.5,339.5C 153.144,338.383 161.81,337.883 170.5,338C 177.01,348.02 184.01,357.687 191.5,367C 199.283,370.268 205.45,368.435 210,361.5C 217.559,329.101 227.059,297.267 238.5,266C 234.347,263.014 230.681,259.514 227.5,255.5C 210.104,267.53 192.104,278.53 173.5,288.5C 163.227,293.091 152.56,296.591 141.5,299C 124.952,300.309 112.452,293.809 104,279.5C 100.932,274.036 98.4323,268.369 96.5,262.5C 107.501,277.322 121.834,281.822 139.5,276C 164.075,266.88 187.075,254.88 208.5,240C 200.015,241.372 191.682,243.538 183.5,246.5C 181.813,246.24 180.313,245.573 179,244.5C 178.231,241.901 178.398,239.401 179.5,237C 194.679,231.932 210.012,227.432 225.5,223.5C 225.5,230.833 225.5,238.167 225.5,245.5C 234.799,246.585 244.132,246.752 253.5,246C 264.667,244.167 271.167,237.667 273,226.5C 273.5,212.504 273.667,198.504 273.5,184.5C 276.38,184.94 279.046,185.94 281.5,187.5C 286.051,192.269 288.718,197.936 289.5,204.5C 303.26,200.602 317.093,196.935 331,193.5C 337.913,194.672 339.08,197.839 334.5,203C 319.568,207.478 304.568,211.645 289.5,215.5C 289.012,218.711 289.679,221.544 291.5,224C 305.5,228 319.5,232 333.5,236C 334.931,236.465 336.097,237.299 337,238.5C 337.9,243.032 336.066,245.698 331.5,246.5C 317.806,242.497 304.139,238.497 290.5,234.5C 289.167,236.167 289.167,237.833 290.5,239.5C 304.618,248.893 319.618,256.727 335.5,263C 360.38,273.572 379.213,267.072 392,243.5C 406.91,210.132 410.744,175.465 403.5,139.5 Z"/></g>
<g><path style="opacity:1" fill="#d16472" d="M 225.5,181.5 C 227.884,183.885 230.55,185.885 233.5,187.5C 229.711,191.407 227.211,196.074 226,201.5C 225.5,194.842 225.334,188.175 225.5,181.5 Z"/></g>
<g><path style="opacity:1" fill="#cd5e6f" d="M 180.5,193.5 C 182.857,193.337 185.19,193.503 187.5,194C 200.05,197.943 212.717,201.443 225.5,204.5C 225.5,208.167 225.5,211.833 225.5,215.5C 211.058,212.188 196.724,208.354 182.5,204C 178.018,201.278 177.351,197.778 180.5,193.5 Z"/></g>
<g><path style="opacity:1" fill="#fdbd79" d="M 144.5,339.5 C 153.408,322.012 163.074,305.012 173.5,288.5C 192.104,278.53 210.104,267.53 227.5,255.5C 230.681,259.514 234.347,263.014 238.5,266C 227.059,297.267 217.559,329.101 210,361.5C 205.45,368.435 199.283,370.268 191.5,367C 184.01,357.687 177.01,348.02 170.5,338C 161.81,337.883 153.144,338.383 144.5,339.5 Z"/></g>
<g><path style="opacity:1" fill="#fdbd79" d="M 296.5,378.5 C 289.64,353.751 282.14,329.084 274,304.5C 271.333,297.833 268.667,291.167 266,284.5C 263.894,279.27 261.061,274.603 257.5,270.5C 257.047,269.542 256.381,268.708 255.5,268C 264.288,268.448 272.622,266.781 280.5,263C 282.959,260.554 285.292,258.054 287.5,255.5C 296.365,261.53 305.365,267.364 314.5,273C 328.975,294.103 341.808,316.27 353,339.5C 353.689,346.623 350.856,351.789 344.5,355C 334.13,355.231 323.797,354.898 313.5,354C 307.454,361.934 301.787,370.101 296.5,378.5 Z"/></g>
</svg>
