<?xml version="1.0" encoding="UTF-8"?>
<!DOCTYPE svg PUBLIC "-//W3C//DTD SVG 1.1//EN" "http://www.w3.org/Graphics/SVG/1.1/DTD/svg11.dtd">
<svg xmlns="http://www.w3.org/2000/svg" version="1.1" width="484px" height="484px" style="shape-rendering:geometricPrecision; text-rendering:geometricPrecision; image-rendering:optimizeQuality; fill-rule:evenodd; clip-rule:evenodd" xmlns:xlink="http://www.w3.org/1999/xlink">
<g><path style="opacity:0.107" fill="#000000" d="M 75.5,-0.5 C 185.833,-0.5 296.167,-0.5 406.5,-0.5C 448.826,6.82542 474.492,31.4921 483.5,73.5C 483.5,185.167 483.5,296.833 483.5,408.5C 474.869,449.797 449.869,474.797 408.5,483.5C 296.833,483.5 185.167,483.5 73.5,483.5C 31.5603,474.558 6.89365,448.892 -0.5,406.5C -0.5,296.167 -0.5,185.833 -0.5,75.5C 7.16462,32.502 32.498,7.16871 75.5,-0.5 Z"/></g>
<g><path style="opacity:1" fill="#feedb6" d="M 69.5,3.5 C 181.167,3.33333 292.834,3.5 404.5,4C 440.661,11.4941 462.494,33.3274 470,69.5C 470.667,180.5 470.667,291.5 470,402.5C 465.401,431.861 449.568,452.694 422.5,465C 416.37,467.449 410.037,469.116 403.5,470C 292.5,470.667 181.5,470.667 70.5,470C 33.7735,462.94 11.6068,441.107 4,404.5C 3.33333,292.5 3.33333,180.5 4,68.5C 11.8002,32.5326 33.6335,10.8659 69.5,3.5 Z"/></g>
<g><path style="opacity:1" fill="#ff1239" d="M 334.5,63.5 C 329.95,77.9356 324.284,91.9356 317.5,105.5C 310.589,102.542 303.589,99.8753 296.5,97.5C 296.5,96.5 296.5,95.5 296.5,94.5C 299.944,83.4454 304.611,72.9454 310.5,63C 313.328,60.4205 316.662,59.2538 320.5,59.5C 325.334,60.2223 330.001,61.5556 334.5,63.5 Z"/></g>
<g><path style="opacity:1" fill="#ff4062" d="M 334.5,63.5 C 360.682,74.9518 387.015,86.1185 413.5,97C 420.077,101.559 422.243,107.726 420,115.5C 413.424,126.725 409.59,138.725 408.5,151.5C 407.833,149.167 407.167,146.833 406.5,144.5C 405.251,142.864 403.584,141.697 401.5,141C 373.874,129.684 346.374,118.184 319,106.5C 306.427,116.208 293.927,126.041 281.5,136C 273.832,134.832 266.498,132.332 259.5,128.5C 258.702,128.043 258.369,127.376 258.5,126.5C 258.833,125.833 259.167,125.167 259.5,124.5C 272.462,115.197 284.795,105.197 296.5,94.5C 296.5,95.5 296.5,96.5 296.5,97.5C 303.589,99.8753 310.589,102.542 317.5,105.5C 324.284,91.9356 329.95,77.9356 334.5,63.5 Z"/></g>
<g><path style="opacity:1" fill="#c70725" d="M 124.5,75.5 C 123.118,78.3943 121.118,80.8943 118.5,83C 96.872,100.959 75.5386,119.293 54.5,138C 50.9613,139.504 47.2946,139.837 43.5,139C 42.244,138.583 41.5774,137.75 41.5,136.5C 64.6409,116.198 87.9743,96.0316 111.5,76C 115.775,72.92 120.109,72.7534 124.5,75.5 Z"/></g>
<g><path style="opacity:1" fill="#a6031f" d="M 124.5,75.5 C 129.855,80.2993 130.855,85.966 127.5,92.5C 125.745,93.0722 124.078,93.9055 122.5,95C 101.628,113.376 80.628,131.543 59.5,149.5C 56.9974,151.833 54.3307,153.999 51.5,156C 50.1772,156.816 49.5106,157.983 49.5,159.5C 36.3651,162.525 30.8651,157.525 33,144.5C 35.7028,141.629 38.5361,138.962 41.5,136.5C 41.5774,137.75 42.244,138.583 43.5,139C 47.2946,139.837 50.9613,139.504 54.5,138C 75.5386,119.293 96.872,100.959 118.5,83C 121.118,80.8943 123.118,78.3943 124.5,75.5 Z"/></g>
<g><path style="opacity:1" fill="#49831f" d="M 250.5,84.5 C 247.988,86.4784 246.488,89.1451 246,92.5C 245.333,137.167 245.333,181.833 246,226.5C 247.37,229.05 248.537,231.717 249.5,234.5C 243.148,241.007 235.815,242.174 227.5,238C 224.519,235.536 222.186,232.703 220.5,229.5C 218.647,222.006 217.98,214.339 218.5,206.5C 174.997,206.832 131.663,206.499 88.5,205.5C 94.5,205.5 100.5,205.5 106.5,205.5C 107.167,205.5 107.833,205.5 108.5,205.5C 126.5,205.5 144.5,205.5 162.5,205.5C 181.5,205.5 200.5,205.5 219.5,205.5C 219.802,202.941 219.468,200.607 218.5,198.5C 218.5,198.167 218.5,197.833 218.5,197.5C 218.5,186.167 218.5,174.833 218.5,163.5C 218.5,145.833 218.5,128.167 218.5,110.5C 218.334,104.158 218.5,97.8246 219,91.5C 225.335,77.9052 235.168,74.7385 248.5,82C 249.381,82.7083 250.047,83.5416 250.5,84.5 Z"/></g>
<g><path style="opacity:1" fill="#fe0d38" d="M 127.5,92.5 C 133.401,98.6449 139.068,104.978 144.5,111.5C 168.822,140.487 193.489,169.153 218.5,197.5C 218.5,197.833 218.5,198.167 218.5,198.5C 218.5,200.5 218.5,202.5 218.5,204.5C 199.992,204.83 181.659,204.497 163.5,203.5C 176.376,183.288 173.709,165.455 155.5,150C 132.08,138.646 113.913,144.146 101,166.5C 95.7137,181.107 98.2137,194.107 108.5,205.5C 107.833,205.5 107.167,205.5 106.5,205.5C 90.3496,187.173 74.6829,168.506 59.5,149.5C 80.628,131.543 101.628,113.376 122.5,95C 124.078,93.9055 125.745,93.0722 127.5,92.5 Z"/></g>
<g><path style="opacity:1" fill="#78b9ea" d="M 218.5,110.5 C 218.5,128.167 218.5,145.833 218.5,163.5C 200.158,143.321 182.324,122.654 165,101.5C 163.644,100.62 162.144,100.286 160.5,100.5C 166.77,97.7157 173.436,96.8823 180.5,98C 193.381,101.553 206.048,105.719 218.5,110.5 Z"/></g>
<g><path style="opacity:1" fill="#5ca9e5" d="M 160.5,100.5 C 162.144,100.286 163.644,100.62 165,101.5C 182.324,122.654 200.158,143.321 218.5,163.5C 218.5,174.833 218.5,186.167 218.5,197.5C 193.489,169.153 168.822,140.487 144.5,111.5C 148.728,106.279 154.062,102.613 160.5,100.5 Z"/></g>
<g><path style="opacity:1" fill="#fe718a" d="M 406.5,144.5 C 393.874,154.457 381.541,164.79 369.5,175.5C 340.724,162.732 311.724,150.232 282.5,138C 281.5,137.333 280.5,137.333 279.5,138C 277.542,140.748 275.709,143.582 274,146.5C 268.398,159.81 262.898,173.143 257.5,186.5C 258.189,188.353 259.522,189.519 261.5,190C 273.807,194.704 285.807,199.871 297.5,205.5C 283.5,205.5 269.5,205.5 255.5,205.5C 255.5,179.833 255.5,154.167 255.5,128.5C 256.5,127.833 257.5,127.167 258.5,126.5C 258.369,127.376 258.702,128.043 259.5,128.5C 266.498,132.332 273.832,134.832 281.5,136C 293.927,126.041 306.427,116.208 319,106.5C 346.374,118.184 373.874,129.684 401.5,141C 403.584,141.697 405.251,142.864 406.5,144.5 Z"/></g>
<g><path style="opacity:1" fill="#83b6e6" d="M 255.5,123.5 C 256.959,123.433 258.292,123.766 259.5,124.5C 259.167,125.167 258.833,125.833 258.5,126.5C 257.5,127.167 256.5,127.833 255.5,128.5C 255.5,126.833 255.5,125.167 255.5,123.5 Z"/></g>
<g><path style="opacity:1" fill="#fea4b4" d="M 369.5,175.5 C 367.43,177.964 365.596,180.631 364,183.5C 360.869,190.754 358.036,198.087 355.5,205.5C 336.167,205.5 316.833,205.5 297.5,205.5C 285.807,199.871 273.807,194.704 261.5,190C 259.522,189.519 258.189,188.353 257.5,186.5C 262.898,173.143 268.398,159.81 274,146.5C 275.709,143.582 277.542,140.748 279.5,138C 280.5,137.333 281.5,137.333 282.5,138C 311.724,150.232 340.724,162.732 369.5,175.5 Z"/></g>
<g><path style="opacity:1" fill="#a6051e" d="M 163.5,203.5 C 162.662,203.842 162.328,204.508 162.5,205.5C 144.5,205.5 126.5,205.5 108.5,205.5C 98.2137,194.107 95.7137,181.107 101,166.5C 113.913,144.146 132.08,138.646 155.5,150C 173.709,165.455 176.376,183.288 163.5,203.5 Z"/></g>
<g><path style="opacity:1" fill="#fe1339" d="M 406.5,144.5 C 407.167,146.833 407.833,149.167 408.5,151.5C 410.161,164.126 411.495,176.792 412.5,189.5C 412.741,195.097 411.741,200.431 409.5,205.5C 409.167,205.5 408.833,205.5 408.5,205.5C 390.833,205.5 373.167,205.5 355.5,205.5C 358.036,198.087 360.869,190.754 364,183.5C 365.596,180.631 367.43,177.964 369.5,175.5C 381.541,164.79 393.874,154.457 406.5,144.5 Z"/></g>
<g><path style="opacity:1" fill="#c80625" d="M 59.5,149.5 C 74.6829,168.506 90.3496,187.173 106.5,205.5C 100.5,205.5 94.5,205.5 88.5,205.5C 75.5,190.167 62.5,174.833 49.5,159.5C 49.5106,157.983 50.1772,156.816 51.5,156C 54.3307,153.999 56.9974,151.833 59.5,149.5 Z"/></g>
<g><path style="opacity:1" fill="#fdc900" d="M 148.5,157.5 C 151.652,156.959 154.152,157.959 156,160.5C 156.424,164.788 155.924,168.955 154.5,173C 156.705,175.54 159.205,177.707 162,179.5C 164.435,184.761 162.768,188.094 157,189.5C 154.004,189.086 151.504,187.752 149.5,185.5C 139.03,198.391 126.363,200.891 111.5,193C 106.527,188.818 106.36,184.318 111,179.5C 119.275,168.879 130.109,164.879 143.5,167.5C 143.61,163.28 145.277,159.946 148.5,157.5 Z"/></g>
<g><path style="opacity:1" fill="#ff4062" d="M 303.5,161.5 C 304.822,161.33 305.989,161.663 307,162.5C 307.667,169.833 307.667,177.167 307,184.5C 304.081,190.025 299.581,191.858 293.5,190C 288.919,186.562 287.419,182.062 289,176.5C 293.364,170.97 298.198,165.97 303.5,161.5 Z"/></g>
<g><path style="opacity:1" fill="#aa161c" d="M 130.5,179.5 C 132.857,179.337 135.19,179.503 137.5,180C 133.732,184.207 129.066,185.54 123.5,184C 125.592,181.964 127.926,180.464 130.5,179.5 Z"/></g>
<g><path style="opacity:1" fill="#e02a33" d="M 218.5,198.5 C 219.468,200.607 219.802,202.941 219.5,205.5C 200.5,205.5 181.5,205.5 162.5,205.5C 162.328,204.508 162.662,203.842 163.5,203.5C 181.659,204.497 199.992,204.83 218.5,204.5C 218.5,202.5 218.5,200.5 218.5,198.5 Z"/></g>
<g><path style="opacity:1" fill="#4f901e" d="M 250.5,84.5 C 252.64,86.7005 254.14,89.3672 255,92.5C 255.5,102.828 255.666,113.161 255.5,123.5C 255.5,125.167 255.5,126.833 255.5,128.5C 255.5,154.167 255.5,179.833 255.5,205.5C 269.5,205.5 283.5,205.5 297.5,205.5C 316.833,205.5 336.167,205.5 355.5,205.5C 373.167,205.5 390.833,205.5 408.5,205.5C 357.669,206.499 306.669,206.832 255.5,206.5C 255.925,214.288 255.258,221.955 253.5,229.5C 316.496,230.5 379.496,230.833 442.5,230.5C 441.917,246.75 433.584,256.083 417.5,258.5C 413.167,258.5 408.833,258.5 404.5,258.5C 390.5,258.5 376.5,258.5 362.5,258.5C 358.167,258.5 353.833,258.5 349.5,258.5C 333.5,258.5 317.5,258.5 301.5,258.5C 297.5,258.5 293.5,258.5 289.5,258.5C 274.167,258.5 258.833,258.5 243.5,258.5C 239.167,258.5 234.833,258.5 230.5,258.5C 215.833,258.5 201.167,258.5 186.5,258.5C 182.167,258.5 177.833,258.5 173.5,258.5C 157.5,258.5 141.5,258.5 125.5,258.5C 121.5,258.5 117.5,258.5 113.5,258.5C 108.5,258.5 103.5,258.5 98.5,258.5C 84.5,258.5 70.5,258.5 56.5,258.5C 41.1477,256.314 32.8144,247.48 31.5,232C 33.0652,215.602 42.0652,206.768 58.5,205.5C 59.8304,217.999 66.4971,226.166 78.5,230C 126.002,230.832 173.335,230.665 220.5,229.5C 222.186,232.703 224.519,235.536 227.5,238C 235.815,242.174 243.148,241.007 249.5,234.5C 248.537,231.717 247.37,229.05 246,226.5C 245.333,181.833 245.333,137.167 246,92.5C 246.488,89.1451 247.988,86.4784 250.5,84.5 Z"/></g>
<g><path style="opacity:1" fill="#5eac24" d="M 408.5,205.5 C 408.833,205.5 409.167,205.5 409.5,205.5C 423.845,204.253 434.345,209.92 441,222.5C 441.822,225.117 442.322,227.784 442.5,230.5C 379.496,230.833 316.496,230.5 253.5,229.5C 255.258,221.955 255.925,214.288 255.5,206.5C 306.669,206.832 357.669,206.499 408.5,205.5 Z"/></g>
<g><path style="opacity:1" fill="#5eac24" d="M 58.5,205.5 C 68.5,205.5 78.5,205.5 88.5,205.5C 131.663,206.499 174.997,206.832 218.5,206.5C 217.98,214.339 218.647,222.006 220.5,229.5C 173.335,230.665 126.002,230.832 78.5,230C 66.4971,226.166 59.8304,217.999 58.5,205.5 Z"/></g>
<g><path style="opacity:1" fill="#9bd96e" d="M 234.5,217.5 C 242.818,217.987 244.485,221.487 239.5,228C 231.088,227.812 229.421,224.312 234.5,217.5 Z"/></g>
<g><path style="opacity:1" fill="#5fad26" d="M 56.5,258.5 C 70.5,258.5 84.5,258.5 98.5,258.5C 98.5,258.833 98.5,259.167 98.5,259.5C 88.8276,259.334 79.1609,259.5 69.5,260C 74.8333,275.667 80.1667,291.333 85.5,307C 95.1609,307.5 104.828,307.666 114.5,307.5C 117.167,307.5 119.833,307.5 122.5,307.5C 119.656,291.126 116.656,274.792 113.5,258.5C 117.5,258.5 121.5,258.5 125.5,258.5C 129.574,274.685 132.907,291.018 135.5,307.5C 139.514,307.334 143.514,307.501 147.5,308C 151.925,310.549 152.592,313.882 149.5,318C 145.974,319.337 142.308,319.837 138.5,319.5C 141.931,334.086 144.931,348.753 147.5,363.5C 159.167,363.5 170.833,363.5 182.5,363.5C 181.334,348.847 180.334,334.18 179.5,319.5C 175.486,319.666 171.486,319.499 167.5,319C 162.185,315.283 162.185,311.617 167.5,308C 170.817,307.502 174.15,307.335 177.5,307.5C 176.606,291.124 175.273,274.791 173.5,258.5C 177.833,258.5 182.167,258.5 186.5,258.5C 187.997,274.466 189.164,290.466 190,306.5C 203.421,307.49 216.921,307.823 230.5,307.5C 230.5,291.167 230.5,274.833 230.5,258.5C 234.833,258.5 239.167,258.5 243.5,258.5C 243.5,274.833 243.5,291.167 243.5,307.5C 257.5,307.5 271.5,307.5 285.5,307.5C 286.07,291.1 287.403,274.767 289.5,258.5C 293.5,258.5 297.5,258.5 301.5,258.5C 300.167,274.834 298.833,291.168 297.5,307.5C 311.5,307.5 325.5,307.5 339.5,307.5C 342.992,291.199 346.325,274.866 349.5,258.5C 353.833,258.5 358.167,258.5 362.5,258.5C 359.006,274.808 355.673,291.142 352.5,307.5C 364.833,307.5 377.167,307.5 389.5,307.5C 394.298,291.107 399.298,274.774 404.5,258.5C 408.833,258.5 413.167,258.5 417.5,258.5C 409.642,284.24 401.476,309.907 393,335.5C 392.34,337.324 391.173,338.657 389.5,339.5C 385.51,340.384 382.677,339.051 381,335.5C 382.029,330.22 383.195,324.886 384.5,319.5C 372.833,319.5 361.167,319.5 349.5,319.5C 346.503,334.158 343.503,348.825 340.5,363.5C 350.833,363.5 361.167,363.5 371.5,363.5C 371.142,356.137 374.475,352.137 381.5,351.5C 385.168,353.392 386.335,356.392 385,360.5C 378.67,379.817 372.336,399.15 366,418.5C 362.381,425.451 356.881,430.284 349.5,433C 274.833,433.667 200.167,433.667 125.5,433C 118.143,430.311 112.643,425.478 109,418.5C 91.4184,365.254 73.9184,311.921 56.5,258.5 Z"/></g>
<g><path style="opacity:1" fill="#7ed53e" d="M 98.5,259.5 C 104.035,275.437 109.368,291.437 114.5,307.5C 104.828,307.666 95.1609,307.5 85.5,307C 80.1667,291.333 74.8333,275.667 69.5,260C 79.1609,259.5 88.8276,259.334 98.5,259.5 Z"/></g>
<g><path style="opacity:1" fill="#a2e073" d="M 98.5,258.5 C 103.5,258.5 108.5,258.5 113.5,258.5C 116.656,274.792 119.656,291.126 122.5,307.5C 119.833,307.5 117.167,307.5 114.5,307.5C 109.368,291.437 104.035,275.437 98.5,259.5C 98.5,259.167 98.5,258.833 98.5,258.5 Z"/></g>
<g><path style="opacity:1" fill="#a3e175" d="M 125.5,258.5 C 141.5,258.5 157.5,258.5 173.5,258.5C 175.273,274.791 176.606,291.124 177.5,307.5C 174.15,307.335 170.817,307.502 167.5,308C 162.185,311.617 162.185,315.283 167.5,319C 171.486,319.499 175.486,319.666 179.5,319.5C 180.334,334.18 181.334,348.847 182.5,363.5C 170.833,363.5 159.167,363.5 147.5,363.5C 144.931,348.753 141.931,334.086 138.5,319.5C 142.308,319.837 145.974,319.337 149.5,318C 152.592,313.882 151.925,310.549 147.5,308C 143.514,307.501 139.514,307.334 135.5,307.5C 132.907,291.018 129.574,274.685 125.5,258.5 Z"/></g>
<g><path style="opacity:1" fill="#a3e175" d="M 186.5,258.5 C 201.167,258.5 215.833,258.5 230.5,258.5C 230.5,274.833 230.5,291.167 230.5,307.5C 216.921,307.823 203.421,307.49 190,306.5C 189.164,290.466 187.997,274.466 186.5,258.5 Z"/></g>
<g><path style="opacity:1" fill="#a2e174" d="M 243.5,258.5 C 258.833,258.5 274.167,258.5 289.5,258.5C 287.403,274.767 286.07,291.1 285.5,307.5C 271.5,307.5 257.5,307.5 243.5,307.5C 243.5,291.167 243.5,274.833 243.5,258.5 Z"/></g>
<g><path style="opacity:1" fill="#a3e174" d="M 301.5,258.5 C 317.5,258.5 333.5,258.5 349.5,258.5C 346.325,274.866 342.992,291.199 339.5,307.5C 325.5,307.5 311.5,307.5 297.5,307.5C 298.833,291.168 300.167,274.834 301.5,258.5 Z"/></g>
<g><path style="opacity:1" fill="#a2e174" d="M 362.5,258.5 C 376.5,258.5 390.5,258.5 404.5,258.5C 399.298,274.774 394.298,291.107 389.5,307.5C 377.167,307.5 364.833,307.5 352.5,307.5C 355.673,291.142 359.006,274.808 362.5,258.5 Z"/></g>
<g><path style="opacity:1" fill="#7ed53e" d="M 118.5,319.5 C 123.365,334.096 128.032,348.763 132.5,363.5C 122.833,363.5 113.167,363.5 103.5,363.5C 99.2371,349.045 94.5705,334.711 89.5,320.5C 99.1437,319.502 108.81,319.168 118.5,319.5 Z"/></g>
<g><path style="opacity:1" fill="#a0df72" d="M 118.5,319.5 C 121.119,319.232 123.619,319.565 126,320.5C 128.834,333.846 131.667,347.179 134.5,360.5C 134.36,362.03 133.693,363.03 132.5,363.5C 128.032,348.763 123.365,334.096 118.5,319.5 Z"/></g>
<g><path style="opacity:1" fill="#a3e175" d="M 191.5,319.5 C 204.5,319.5 217.5,319.5 230.5,319.5C 230.5,334.167 230.5,348.833 230.5,363.5C 218.833,363.5 207.167,363.5 195.5,363.5C 194.166,348.826 192.833,334.159 191.5,319.5 Z"/></g>
<g><path style="opacity:1" fill="#a3e175" d="M 243.5,319.5 C 256.833,319.5 270.167,319.5 283.5,319.5C 282.296,334.15 281.296,348.817 280.5,363.5C 268.167,363.5 255.833,363.5 243.5,363.5C 243.5,348.833 243.5,334.167 243.5,319.5 Z"/></g>
<g><path style="opacity:1" fill="#a3e175" d="M 296.5,319.5 C 309.833,319.5 323.167,319.5 336.5,319.5C 333.501,334.163 330.501,348.829 327.5,363.5C 316.167,363.5 304.833,363.5 293.5,363.5C 293.765,348.783 294.765,334.116 296.5,319.5 Z"/></g>
<g><path style="opacity:1" fill="#a3e174" d="M 389.5,339.5 C 388.081,340.451 386.415,340.784 384.5,340.5C 383.964,344.314 382.964,347.981 381.5,351.5C 374.475,352.137 371.142,356.137 371.5,363.5C 361.167,363.5 350.833,363.5 340.5,363.5C 343.503,348.825 346.503,334.158 349.5,319.5C 361.167,319.5 372.833,319.5 384.5,319.5C 383.195,324.886 382.029,330.22 381,335.5C 382.677,339.051 385.51,340.384 389.5,339.5 Z"/></g>
<g><path style="opacity:1" fill="#7dd53d" d="M 108.5,376.5 C 118.5,376.5 128.5,376.5 138.5,376.5C 141.37,391.518 144.37,406.518 147.5,421.5C 141.158,421.666 134.825,421.5 128.5,421C 126.246,419.623 124.08,418.123 122,416.5C 117.196,403.255 112.696,389.921 108.5,376.5 Z"/></g>
<g><path style="opacity:1" fill="#a2e174" d="M 150.5,376.5 C 161.833,376.5 173.167,376.5 184.5,376.5C 185.681,391.488 186.681,406.488 187.5,421.5C 178.167,421.5 168.833,421.5 159.5,421.5C 157.07,406.399 154.07,391.399 150.5,376.5 Z"/></g>
<g><path style="opacity:1" fill="#a3e175" d="M 196.5,376.5 C 207.833,376.5 219.167,376.5 230.5,376.5C 230.5,391.5 230.5,406.5 230.5,421.5C 220.167,421.5 209.833,421.5 199.5,421.5C 199.211,406.448 198.211,391.448 196.5,376.5 Z"/></g>
<g><path style="opacity:1" fill="#a3e175" d="M 243.5,376.5 C 255.167,376.5 266.833,376.5 278.5,376.5C 277.042,391.455 276.042,406.455 275.5,421.5C 264.833,421.5 254.167,421.5 243.5,421.5C 243.5,406.5 243.5,391.5 243.5,376.5 Z"/></g>
<g><path style="opacity:1" fill="#a2e174" d="M 291.5,376.5 C 302.5,376.5 313.5,376.5 324.5,376.5C 321.342,391.465 318.342,406.465 315.5,421.5C 306.167,421.5 296.833,421.5 287.5,421.5C 288.626,406.476 289.96,391.476 291.5,376.5 Z"/></g>
<g><path style="opacity:1" fill="#a2e174" d="M 337.5,376.5 C 347.19,376.168 356.856,376.502 366.5,377.5C 362.153,390.555 357.653,403.555 353,416.5C 350.531,418.652 347.698,420.152 344.5,421C 339.177,421.499 333.844,421.666 328.5,421.5C 331.025,406.4 334.025,391.4 337.5,376.5 Z"/></g>
</svg>
